<?xml version="1.0" encoding="UTF-8" standalone="no"?>
<svg
   xmlns:dc="http://purl.org/dc/elements/1.1/"
   xmlns:cc="http://creativecommons.org/ns#"
   xmlns:rdf="http://www.w3.org/1999/02/22-rdf-syntax-ns#"
   xmlns:svg="http://www.w3.org/2000/svg"
   xmlns="http://www.w3.org/2000/svg"
   id="svg4"
   xml:space="preserve"
   viewBox="0 0 1024 768"
   y="0px"
   x="0px"
   version="1.1"><metadata
     id="metadata10"><rdf:RDF><cc:Work
         rdf:about=""><dc:format>image/svg+xml</dc:format><dc:type
           rdf:resource="http://purl.org/dc/dcmitype/StillImage" /></cc:Work></rdf:RDF></metadata><defs
     id="defs8" /><path
     id="path2"
     d="m344.54 297.4c-0.76-0.02-1.32 0-1.72 0.05-0.32 0.03-0.8 0.1-1.07 0.15s-0.77 0.15-1.13 0.24c-0.35 0.08-0.93 0.24-1.3 0.36-0.36 0.11-1.03 0.34-1.48 0.51s-1.05 0.42-1.34 0.56c-0.29 0.13-0.82 0.44-1.18 0.69-0.35 0.24-0.87 0.62-1.13 0.83-0.27 0.22-0.76 0.63-1.08 0.93s-0.83 0.81-1.13 1.13c-0.3 0.33-0.74 0.83-0.97 1.12-0.24 0.3-0.67 0.86-0.95 1.26-0.29 0.4-0.71 1.02-0.93 1.38s-0.57 0.95-0.76 1.3c-0.2 0.35-0.54 1-0.76 1.43s-0.54 1.12-0.73 1.53c-0.18 0.41-0.49 1.17-0.7 1.69s-0.53 1.38-0.72 1.92c-0.18 0.53-0.49 1.46-0.67 2.07-0.18 0.6-0.41 1.33-0.5 1.61-0.1 0.28-0.24 0.79-0.33 1.13-0.08 0.33-0.23 0.94-0.31 1.35-0.09 0.4-0.25 1.23-0.36 1.83-0.11 0.61-0.29 1.68-0.4 2.39-0.12 0.7-0.32 2.08-0.47 3.06-0.14 0.99-0.38 2.76-0.53 3.94-0.16 1.18-0.42 3.31-0.59 4.73s-0.46 3.93-0.64 5.58c-0.18 1.64-0.47 4.31-0.64 5.93-0.17 1.61-0.46 4.48-0.64 6.36-0.19 1.89-0.35 3.48-0.36 3.55-0.02 0.09-0.18-0.08-0.91-1.03-0.49-0.63-1.2-1.53-1.58-2.01-0.38-0.47-0.98-1.21-1.34-1.63s-1.02-1.18-1.48-1.69c-0.46-0.5-1.19-1.26-1.62-1.69-0.43-0.42-1.03-0.97-1.32-1.21-0.3-0.25-0.8-0.62-1.11-0.83-0.3-0.21-0.94-0.57-1.4-0.81-0.47-0.24-1.07-0.53-1.36-0.64-0.28-0.11-0.77-0.28-1.09-0.39-0.32-0.1-0.82-0.23-1.12-0.28-0.29-0.06-0.82-0.13-1.16-0.16-0.43-0.04-0.81-0.04-1.25 0-0.34 0.03-0.83 0.1-1.07 0.15-0.25 0.06-0.64 0.16-0.86 0.24-0.22 0.07-0.61 0.23-0.86 0.35s-0.67 0.35-0.92 0.5c-0.25 0.16-0.65 0.45-0.87 0.64-0.23 0.19-0.64 0.57-0.91 0.86-0.28 0.28-0.7 0.74-0.92 1.02-0.23 0.28-0.59 0.79-0.82 1.13-0.22 0.33-0.61 1.02-0.85 1.53-0.25 0.51-0.54 1.14-0.64 1.41-0.1 0.28-0.27 0.81-0.38 1.2-0.12 0.38-0.28 1.03-0.36 1.45-0.08 0.41-0.2 1.16-0.26 1.67-0.06 0.5-0.14 1.22-0.19 1.59-0.06 0.51-0.07 0.89-0.05 1.61 0.02 0.52 0.08 1.31 0.14 1.76s0.16 1.15 0.23 1.56c0.07 0.4 0.21 1.14 0.31 1.63 0.1 0.5 0.29 1.4 0.44 2.02 0.14 0.62 0.41 1.77 0.61 2.56s0.55 2.15 0.79 3.03c0.24 0.87 0.66 2.4 0.94 3.39 0.39 1.35 0.53 1.91 0.57 2.29 0.02 0.27 0.04 0.79 0.04 1.16 0.01 0.36-0.02 0.81-0.05 1-0.03 0.22-0.13 0.49-0.29 0.81-0.14 0.26-0.35 0.58-0.48 0.72s-0.43 0.38-0.68 0.54c-0.24 0.15-0.69 0.41-1.01 0.56s-1.52 0.61-2.67 1.02c-1.16 0.4-2.84 1-3.74 1.32-0.9 0.33-2.27 0.82-3.04 1.1s-2.14 0.79-3.04 1.13c-0.9 0.33-2.06 0.77-2.58 0.97-0.51 0.2-1.36 0.54-1.89 0.75-0.52 0.22-1.27 0.55-1.67 0.74-0.39 0.19-0.91 0.48-1.15 0.66-0.24 0.17-0.78 0.54-1.2 0.82s-1.04 0.72-1.38 1c-0.34 0.27-0.91 0.78-1.27 1.14s-0.85 0.88-1.07 1.16c-0.23 0.28-0.57 0.76-0.77 1.05-0.19 0.3-0.46 0.75-0.6 1.02-0.13 0.27-0.31 0.72-0.4 1s-0.22 0.78-0.29 1.11c-0.06 0.33-0.15 0.87-0.18 1.2-0.04 0.36-0.05 0.91-0.03 1.34 0.01 0.41 0.06 0.93 0.11 1.16 0.05 0.22 0.13 0.56 0.19 0.75 0.05 0.2 0.17 0.53 0.26 0.75 0.09 0.21 0.26 0.55 0.38 0.75s0.32 0.51 0.46 0.69c0.13 0.18 0.39 0.49 0.58 0.68 0.18 0.2 0.53 0.52 0.77 0.72s0.63 0.49 0.87 0.65c0.23 0.16 0.66 0.42 0.94 0.57 0.28 0.16 0.86 0.44 1.28 0.62s1.07 0.43 1.45 0.56 1.12 0.34 1.64 0.48 1.15 0.32 1.4 0.39c0.25 0.08 0.7 0.18 1 0.23 0.3 0.06 0.89 0.13 1.31 0.16 0.48 0.04 1.15 0.05 1.81 0.03 0.58-0.02 1.38-0.07 1.79-0.11s1.07-0.13 1.46-0.18c0.39-0.06 1.14-0.19 1.66-0.28 0.52-0.1 1.34-0.27 1.83-0.39 0.48-0.11 1.39-0.34 2.02-0.5 0.63-0.17 1.72-0.48 2.43-0.69s1.84-0.57 2.51-0.79c0.66-0.22 1.73-0.59 2.37-0.82 0.64-0.22 1.61-0.58 2.17-0.79s1.61-0.61 2.34-0.9c0.72-0.28 1.33-0.51 1.34-0.51s0.02 0.12 0.02 0.28c0 0.18-0.08 0.56-0.23 1.06-0.12 0.43-0.34 1.08-0.48 1.44-0.13 0.37-0.32 0.84-0.41 1.05-0.1 0.21-0.37 0.79-0.62 1.28-0.25 0.5-0.66 1.24-0.9 1.64-0.24 0.41-0.66 1.06-0.93 1.45-0.26 0.4-0.74 1.06-1.06 1.49-0.32 0.42-0.88 1.13-1.25 1.57-0.36 0.44-0.91 1.07-1.21 1.4-0.3 0.34-0.97 1.03-1.48 1.55s-1.03 1.09-1.16 1.26c-0.13 0.16-0.39 0.45-0.58 0.64-0.19 0.18-0.59 0.54-0.89 0.79-0.29 0.25-0.82 0.69-1.18 0.97-0.35 0.29-0.99 0.79-1.43 1.13-0.43 0.34-1.43 1.1-2.22 1.69s-2.03 1.51-2.76 2.04c-0.73 0.54-2.03 1.48-2.89 2.1s-2.44 1.75-3.5 2.51c-1.07 0.76-2.96 2.09-4.2 2.96s-3.09 2.17-4.11 2.88c-1.02 0.72-2.17 1.56-2.55 1.88-0.37 0.31-1.02 0.87-1.43 1.23-0.42 0.36-1.07 0.95-1.47 1.32-0.39 0.37-1.14 1.11-1.66 1.64s-1.17 1.23-1.45 1.55c-0.28 0.33-0.75 0.92-1.05 1.31-0.3 0.4-0.73 1.02-0.96 1.39-0.23 0.36-0.55 0.88-0.71 1.16s-0.46 0.85-0.67 1.26c-0.2 0.4-0.45 0.93-0.56 1.17-0.1 0.24-0.28 0.71-0.41 1.04-0.12 0.33-0.29 0.85-0.38 1.15-0.08 0.3-0.2 0.77-0.25 1.03-0.06 0.27-0.14 0.76-0.18 1.09-0.05 0.33-0.08 0.98-0.08 1.44 0 0.45 0.02 1.02 0.05 1.26s0.1 0.66 0.16 0.93c0.05 0.28 0.19 0.79 0.31 1.13 0.11 0.34 0.33 0.88 0.48 1.2s0.4 0.78 0.54 1.02c0.15 0.25 0.48 0.72 0.73 1.06 0.29 0.39 0.79 0.94 1.36 1.51 0.62 0.62 1.03 0.99 1.34 1.2 0.25 0.16 0.8 0.47 1.23 0.69 0.43 0.21 1.08 0.51 1.44 0.65 0.37 0.15 0.92 0.34 1.23 0.44s0.79 0.24 1.08 0.31c0.28 0.07 0.82 0.19 1.2 0.26s1 0.16 1.38 0.21c0.38 0.04 1.22 0.09 1.86 0.11 0.71 0.02 1.54 0 2.07-0.03 0.5-0.03 1.27-0.11 1.72-0.17 0.45-0.05 1.13-0.15 1.51-0.22s1.05-0.21 1.49-0.31 1.21-0.3 1.71-0.44 1.27-0.37 1.71-0.51c0.43-0.14 1.09-0.37 1.45-0.5 0.37-0.14 1.08-0.41 1.59-0.62 0.5-0.2 1.31-0.54 1.79-0.75s1.53-0.71 2.35-1.11c0.81-0.41 1.85-0.94 2.3-1.18 0.45-0.25 1.3-0.72 1.88-1.05 0.58-0.34 1.54-0.9 2.12-1.26 0.59-0.35 1.72-1.07 2.51-1.58 0.8-0.52 1.93-1.28 2.51-1.69s1.53-1.11 2.1-1.55c0.58-0.43 1.47-1.12 1.97-1.52 0.51-0.41 1.34-1.09 1.84-1.52 0.5-0.42 1.35-1.15 1.87-1.62 0.52-0.46 1.32-1.2 1.79-1.63 0.46-0.43 1.45-1.4 2.2-2.15 0.75-0.74 2-2.03 2.8-2.86 0.79-0.83 1.71-1.83 2.06-2.23 0.34-0.39 0.95-1.1 1.35-1.58s1.13-1.38 1.62-2 1.37-1.75 1.97-2.53c0.59-0.77 1.57-2.07 2.17-2.89 0.6-0.81 1.52-2.07 2.04-2.78 0.52-0.72 1.49-2.07 2.15-3 0.66-0.92 1.79-2.52 2.51-3.55 0.71-1.03 1.56-2.23 1.87-2.68 0.32-0.45 0.8-1.09 1.08-1.41 0.28-0.33 0.69-0.76 0.91-0.97l0.4-0.37 0.04 0.22c0.01 0.12 0.03 0.48 0.03 0.8 0.01 0.48-0.03 0.76-0.22 1.74-0.12 0.64-0.34 1.77-0.48 2.52-0.14 0.74-0.37 1.99-0.51 2.76s-0.39 2.14-0.54 3.04c-0.16 0.9-0.39 2.29-0.52 3.09s-0.33 2.17-0.46 3.05c-0.12 0.87-0.28 2.05-0.35 2.63s-0.18 1.51-0.23 2.07c-0.06 0.56-0.13 1.38-0.17 1.82-0.03 0.43-0.06 1.4-0.06 2.14 0 1.04 0.02 1.48 0.09 1.86 0.05 0.28 0.13 0.64 0.19 0.81 0.05 0.17 0.34 0.78 0.64 1.36 0.29 0.59 0.69 1.28 0.88 1.54 0.19 0.27 0.55 0.7 0.81 0.96 0.27 0.27 0.68 0.61 0.98 0.81 0.28 0.19 0.72 0.43 0.96 0.54 0.25 0.11 0.65 0.26 0.9 0.33 0.24 0.07 0.68 0.16 0.98 0.2 0.29 0.05 0.87 0.08 1.28 0.08s1.01-0.03 1.34-0.08c0.34-0.04 0.84-0.12 1.12-0.18s0.79-0.18 1.13-0.27c0.34-0.1 0.88-0.27 1.2-0.38s0.88-0.32 1.25-0.47c0.36-0.14 0.87-0.36 1.12-0.49 0.27-0.13 0.82-0.48 1.32-0.85 0.46-0.34 1.12-0.84 1.45-1.1 0.34-0.25 0.93-0.73 1.33-1.06 0.4-0.32 0.95-0.79 1.23-1.03s0.86-0.77 1.3-1.17c0.43-0.4 1.23-1.17 1.76-1.72 0.53-0.54 1.27-1.32 1.63-1.73 0.36-0.4 0.91-1.04 1.22-1.42 0.31-0.37 0.88-1.11 1.28-1.64 0.39-0.52 1.03-1.43 1.41-2 0.39-0.58 0.9-1.39 1.14-1.79 0.24-0.41 0.55-0.95 0.69-1.21 0.15-0.25 0.5-0.93 0.78-1.5 0.29-0.57 0.66-1.35 0.83-1.74 0.17-0.38 0.45-1.03 0.61-1.45 0.17-0.41 0.45-1.17 0.63-1.69 0.19-0.52 0.46-1.37 0.61-1.9 0.16-0.53 0.38-1.34 0.49-1.79s0.3-1.27 0.41-1.81c0.11-0.55 0.26-1.37 0.33-1.82s0.19-1.29 0.26-1.87c0.07-0.57 0.15-1.43 0.19-1.9 0.03-0.47 0.08-0.86 0.1-0.86s0.17 0.05 0.33 0.11c0.17 0.06 2.35 0.69 4.85 1.4 2.51 0.72 5.82 1.65 7.37 2.09 1.54 0.44 4.18 1.17 5.85 1.64 1.68 0.46 3.93 1.08 5.01 1.38 1.09 0.29 2.74 0.74 3.68 0.99 0.95 0.26 2.34 0.63 3.1 0.83s2.41 0.63 3.68 0.95 2.92 0.73 3.68 0.91 1.86 0.44 2.43 0.56c0.58 0.13 1.39 0.3 1.82 0.39 0.42 0.08 1.03 0.19 1.35 0.24 0.33 0.05 0.83 0.09 1.13 0.09 0.34 0 0.68-0.03 0.94-0.09 0.31-0.07 0.52-0.09 0.85-0.07 0.23 0.02 0.98 0.01 1.66-0.01 0.67-0.03 1.56-0.09 1.97-0.13 0.4-0.04 0.99-0.11 1.3-0.16 0.31-0.04 0.91-0.15 1.34-0.23s1.11-0.24 1.51-0.36c0.4-0.11 1.04-0.32 1.42-0.46s1.02-0.43 1.43-0.63c0.41-0.21 0.98-0.53 1.28-0.73s0.71-0.49 0.92-0.66 0.63-0.56 0.92-0.87c0.3-0.3 0.67-0.73 0.84-0.95 0.16-0.22 0.43-0.63 0.6-0.92 0.18-0.29 0.41-0.75 0.54-1.02 0.12-0.27 0.3-0.73 0.4-1.02s0.25-0.81 0.33-1.14c0.08-0.34 0.2-0.95 0.26-1.36 0.1-0.65 0.12-0.95 0.12-2.38l0.01-1.63-0.12-0.51c-0.06-0.27-0.21-0.78-0.32-1.12-0.12-0.34-0.37-0.95-0.56-1.34s-0.54-1-0.77-1.35c-0.23-0.34-0.55-0.81-0.73-1.04-0.17-0.23-0.57-0.72-0.88-1.09-0.32-0.36-0.93-1.01-1.36-1.43s-1.01-0.97-1.29-1.21c-0.27-0.24-0.84-0.72-1.25-1.05-0.41-0.34-1.11-0.88-1.55-1.2-0.43-0.32-1.09-0.8-1.47-1.06-0.37-0.25-0.98-0.66-1.35-0.9-0.37-0.25-1.04-0.67-1.49-0.95-0.44-0.28-1.28-0.79-1.86-1.13-0.59-0.34-1.3-0.77-1.6-0.96-0.29-0.19-0.83-0.51-1.2-0.71-0.37-0.19-1.03-0.53-1.48-0.74s-1.13-0.51-1.51-0.67c-0.37-0.16-1.22-0.51-1.89-0.77-0.66-0.26-1.88-0.72-2.71-1.02s-2.47-0.87-3.63-1.26c-1.17-0.39-2.94-0.96-3.93-1.27-1-0.31-2.8-0.86-4.02-1.23-1.21-0.36-3.37-0.99-4.79-1.4s-3.71-1.05-5.09-1.43c-1.65-0.46-2.69-0.77-3-0.91-0.26-0.11-0.74-0.34-1.07-0.51s-0.87-0.49-1.2-0.71-0.81-0.58-1.06-0.8c-0.26-0.23-0.61-0.6-0.8-0.83-0.18-0.23-0.43-0.6-0.55-0.82-0.12-0.21-0.28-0.57-0.35-0.8-0.11-0.34-0.14-0.5-0.14-0.99 0-0.48 0.02-0.66 0.11-0.98 0.07-0.21 0.21-0.55 0.33-0.76l0.2-0.39 10.31-8.43c7.46-6.11 10.41-8.56 10.69-8.86 0.21-0.23 0.56-0.66 0.79-0.95s0.59-0.8 0.81-1.13 0.55-0.91 0.73-1.28 0.43-0.95 0.54-1.29c0.12-0.35 0.26-0.83 0.31-1.08s0.13-0.76 0.16-1.15c0.05-0.53 0.05-0.84 0-1.35-0.03-0.36-0.1-0.87-0.16-1.14-0.06-0.26-0.19-0.75-0.31-1.09-0.11-0.33-0.33-0.86-0.48-1.18-0.15-0.31-0.44-0.81-0.63-1.11-0.19-0.29-0.47-0.68-0.62-0.87-0.15-0.18-0.41-0.46-0.56-0.63-0.16-0.16-0.5-0.47-0.75-0.69-0.25-0.21-0.69-0.54-0.97-0.72-0.29-0.19-0.75-0.46-1.04-0.61s-0.8-0.38-1.15-0.51c-0.34-0.14-0.83-0.31-1.08-0.38-0.26-0.08-0.75-0.21-1.1-0.29s-0.95-0.19-1.33-0.25-0.99-0.13-1.36-0.16c-0.36-0.03-0.88-0.09-1.14-0.14-0.37-0.06-0.68-0.08-1.43-0.05-0.53 0.01-1.31 0.07-1.74 0.13-0.44 0.06-1.13 0.17-1.54 0.24s-1.26 0.23-1.9 0.36c-0.63 0.13-1.7 0.36-2.37 0.52-0.68 0.15-1.96 0.46-2.85 0.68s-2.19 0.55-2.89 0.74-1.84 0.5-2.55 0.69c-0.7 0.19-1.65 0.46-2.12 0.59-0.46 0.13-1.8 0.51-2.96 0.85-1.58 0.46-2.25 0.63-2.61 0.66-0.27 0.03-0.8 0.04-1.18 0.03-0.44-0.02-0.83-0.07-1.09-0.13-0.22-0.06-0.53-0.18-0.7-0.27-0.19-0.1-0.46-0.32-0.73-0.6-0.23-0.25-0.57-0.65-0.74-0.91-0.17-0.25-0.45-0.73-0.62-1.07-0.16-0.33-0.38-0.83-0.48-1.1s-0.28-0.81-0.39-1.19-0.27-1.03-0.36-1.46c-0.08-0.42-0.21-1.19-0.28-1.7-0.06-0.52-0.14-1.1-0.16-1.3-0.01-0.19-0.07-0.48-0.11-0.63-0.07-0.23-0.09-0.5-0.08-1.41 0-0.62 0.03-1.51 0.06-1.97s0.12-1.46 0.19-2.22 0.22-2.19 0.33-3.18c0.11-0.98 0.31-2.63 0.43-3.65 0.13-1.03 0.34-2.65 0.47-3.61 0.12-0.95 0.4-2.97 0.61-4.48 0.29-2.11 0.39-2.96 0.41-3.61 0.02-0.47 0.01-1.35-0.03-1.95-0.03-0.61-0.1-1.46-0.16-1.9-0.05-0.44-0.15-1.12-0.23-1.51-0.07-0.39-0.22-1.07-0.33-1.52-0.12-0.45-0.32-1.13-0.44-1.51-0.15-0.46-0.39-1.01-0.7-1.62-0.26-0.5-0.66-1.2-0.88-1.56-0.22-0.35-0.61-0.91-0.86-1.24-0.25-0.34-0.75-0.91-1.1-1.27-0.35-0.37-0.83-0.82-1.05-1-0.23-0.18-0.65-0.49-0.95-0.69-0.29-0.19-0.81-0.49-1.15-0.65-0.34-0.17-0.82-0.37-1.06-0.46-0.25-0.08-0.64-0.2-0.87-0.26s-0.67-0.16-0.98-0.21c-0.4-0.07-0.9-0.1-1.69-0.12zm147.65 20.65v80.63h13.32v-37.15h42.98v37.15h13.32v-80.63h-13.32v32.9h-42.98v-32.9h-13.32zm96.47 0v80.63h13.32v-67.96l22.32 52.48h13.25l22.24-52.48v67.96h13.32v-80.63h-19.22l-22.97 53.99-22.89-53.99h-19.37zm102.09 0v10.58h32.11v70.05h13.03v-70.05h32.11v-10.58h-77.25zm-100.45 104.91c-2.9 0-5.2 0.93-6.91 2.79-1.7 1.85-2.56 4.36-2.56 7.52 0 3.06 0.9 5.49 2.69 7.28 1.81 1.79 4.25 2.69 7.33 2.69 1.23 0 2.45-0.13 3.64-0.38 1.2-0.25 2.36-0.62 3.5-1.1v-3c-1.12 0.59-2.26 1.04-3.41 1.34-1.14 0.3-2.32 0.45-3.54 0.45-2.1 0-3.74-0.57-4.93-1.71-1.17-1.15-1.83-2.81-1.97-5h14.59v-1.55c0-2.87-0.76-5.14-2.27-6.81-1.51-1.68-3.56-2.52-6.16-2.52zm22.88 0c-1.41 0-2.63 0.28-3.65 0.84-1.01 0.56-1.85 1.41-2.52 2.56v-2.93h-3.19v26.66h3.19v-10.25c0.67 1.15 1.51 2.01 2.52 2.57 1.02 0.55 2.24 0.83 3.65 0.83 2.35 0 4.25-0.93 5.71-2.79 1.47-1.87 2.21-4.32 2.21-7.35 0-3.04-0.74-5.48-2.21-7.35-1.46-1.86-3.36-2.79-5.71-2.79zm21.27 0c-2.9 0-5.21 0.93-6.92 2.79-1.7 1.85-2.55 4.36-2.55 7.52 0 3.06 0.89 5.49 2.69 7.28s4.25 2.69 7.33 2.69c1.23 0 2.44-0.13 3.64-0.38 1.19-0.25 2.36-0.62 3.5-1.1v-3c-1.13 0.59-2.27 1.04-3.42 1.34-1.14 0.3-2.31 0.45-3.53 0.45-2.11 0-3.75-0.57-4.93-1.71-1.18-1.15-1.83-2.81-1.97-5h14.59v-1.55c0-2.87-0.76-5.14-2.28-6.81-1.5-1.68-3.56-2.52-6.15-2.52zm57.62 0c-3.01 0-5.38 0.9-7.12 2.71-1.72 1.8-2.58 4.28-2.58 7.43 0 3.1 0.85 5.57 2.57 7.4 1.71 1.83 4.02 2.74 6.93 2.74 1.07 0 2.07-0.1 3.01-0.31 0.96-0.21 1.88-0.52 2.76-0.93v-2.93c-0.89 0.49-1.79 0.86-2.7 1.12-0.9 0.24-1.81 0.36-2.73 0.36-2.05 0-3.65-0.65-4.79-1.95-1.14-1.31-1.71-3.14-1.71-5.5s0.57-4.19 1.71-5.48c1.14-1.32 2.74-1.97 4.79-1.97 0.92 0 1.83 0.13 2.73 0.38 0.91 0.24 1.81 0.61 2.7 1.1v-2.96c-0.87-0.4-1.77-0.7-2.7-0.9-0.93-0.21-1.89-0.31-2.87-0.31zm41.72 0c-2.77 0-4.95 0.9-6.52 2.69-1.56 1.79-2.35 4.28-2.35 7.45 0 3.16 0.79 5.64 2.35 7.45 1.57 1.79 3.75 2.69 6.52 2.69 2.76 0 4.92-0.9 6.5-2.69 1.57-1.81 2.36-4.29 2.36-7.45 0-3.17-0.79-5.66-2.36-7.45-1.58-1.79-3.74-2.69-6.5-2.69zm-174.8 0.47v19.31h3.19v-16.78h10.29v16.78h3.19v-19.31h-16.67zm92.75 0v3.65c0 4.89-0.56 8.54-1.69 10.97-0.46 0.98-1.21 1.7-2.26 2.16h-1.19v7.41h2.54v-4.88h15.65v4.88h2.54v-7.41h-2.54v-16.78h-13.05zm51.34 0v19.31h3.19v-8.9h10.29v8.9h3.19v-19.31h-3.19v7.88h-10.29v-7.88h-3.19zm44.69 0v19.31h3.19v-16.28l5.35 12.57h3.17l5.33-12.57v16.28h3.19v-19.31h-4.6l-5.51 12.93-5.48-12.93h-4.64zm-135.36 2.19c1.68 0 2.99 0.66 3.95 2 0.96 1.32 1.44 3.15 1.44 5.48s-0.48 4.17-1.44 5.5c-0.96 1.32-2.27 1.98-3.95 1.98s-3-0.66-3.97-1.98c-0.95-1.33-1.43-3.17-1.43-5.5s0.48-4.16 1.43-5.48c0.97-1.34 2.29-2 3.97-2zm-22.07 0.03c1.56 0 2.81 0.52 3.75 1.55 0.96 1.04 1.45 2.42 1.47 4.16l-11.31 0.02c0.16-1.82 0.77-3.23 1.83-4.23 1.07-1 2.49-1.5 4.26-1.5zm44.14 0c1.56 0 2.82 0.52 3.76 1.55 0.95 1.04 1.44 2.42 1.47 4.16l-11.32 0.02c0.16-1.82 0.77-3.23 1.83-4.23 1.07-1 2.49-1.5 4.26-1.5zm99.31 0c1.69 0 3.03 0.67 4.02 2.02 0.99 1.33 1.48 3.14 1.48 5.43 0 2.3-0.49 4.12-1.48 5.45s-2.33 2-4.02 2c-1.72 0-3.07-0.66-4.05-1.98-0.98-1.34-1.47-3.16-1.47-5.47s0.49-4.13 1.48-5.45c0.99-1.33 2.34-2 4.04-2zm-78.86 0.31h6.68v14.25h-9.21l0.5-0.94c1.35-2.53 2.03-6.16 2.03-10.89v-2.42z"
     fill="#e17732" /></svg>